<svg width="2268" height="2268" viewBox="0 0 2268 2268" fill="none" xmlns="http://www.w3.org/2000/svg">
<g clip-path="url(#clip0_3579_1948)">
<path d="M1134 2268C1760.3 2268 2268 1760.3 2268 1134C2268 507.7 1760.3 0 1134 0C507.7 0 0 507.7 0 1134C0 1760.3 507.7 2268 1134 2268Z" fill="#2C374B"/>
<path fill-rule="evenodd" clip-rule="evenodd" d="M1748 732.9C1737 722.4 1247.6 437.4 1191.1 408.7C1166.2 395.8 1120.2 392.4 1093.9 401.5C1063.3 411.6 545.1 713.7 524 733.4C513.5 743.5 500.5 760.2 495.3 770.8C486.2 789.5 485.7 802.4 484.3 1147.7L483.3 1504.9L549.4 1543.7C585.8 1564.8 618.4 1582.5 620.8 1583.4C626.1 1584.8 1096.3 835.9 1096.3 825.8C1096.3 818.6 990 820.1 952.2 827.7C912.9 836.3 878.4 853.6 858.8 874.6C850.7 883.2 785.1 981.9 713.2 1093.9C641.4 1206 581 1299.3 578.6 1301.7C576.2 1304.6 574.3 1200.6 574.3 1058.4V810.5L587.7 798.5C610.7 777.4 1119.7 485.8 1133.2 485.8C1146.1 485.8 1153.3 489.6 1271.1 557.6C1310.9 580.6 1417.2 641.9 1508.2 693.6C1599.2 745.8 1678.2 793.7 1684.4 799.9L1694.9 811.9V1327.2L1442.2 939.2C1430.7 920.4 1418.7 901.8 1412.2 893.1L1411.3 891.7L1411.2 891.8C1409.4 889.5 1408.1 888.1 1407.6 888.1C1405.7 888.6 1392.7 909.7 1334.8 1007.3C1327.6 1019.3 1317.1 1037.5 1311.8 1047.5L1301.7 1065.7L1301.8 1065.9L1301.5 1066.1L1308.8 1078.1L1314.2 1087.4C1315.9 1090.3 1317.7 1093 1319.4 1095.5L1336.2 1123.1C1338.3 1127.6 1341.1 1132.8 1344.4 1137.7C1352.1 1149.2 1362.1 1165.5 1366.9 1174.1C1368.1 1176.3 1369.4 1178.3 1370.7 1179.9L1577.9 1520.8L1553.2 1535.2C1539.2 1543.2 1532.4 1546.7 1528.2 1546.9L1269 1144L1262.4 1133.3L1238.9 1171.6L1237.1 1174.5L1136 1339L1135.7 1339.2L1338.1 1657.3C1312.4 1677.5 1141.4 1794.7 1130.3 1794.7C1117.8 1794.7 894.1 1640.9 897 1635.6C898 1633.6 967 1516.5 1050.9 1374.3L1051 1374.1C1124.5 1249.5 1209.2 1105.7 1269.6 1003C1341.4 881.4 1371.1 827.3 1366.3 825.8C1363 824.4 1315.1 823.9 1260.5 824.8L1160.9 826.2L931 1205C846.4 1344.8 769.9 1470.8 726.9 1541.7L726.8 1541.9C705.6 1576.8 692.5 1598.4 690.6 1601.5L680.1 1618.7L858.2 1721.2C956.4 1777.7 1049.8 1830.9 1066.5 1840C1101.5 1858.7 1141.7 1864.9 1169.9 1855.3C1188.6 1849.6 1714.9 1546.4 1741.2 1526.8C1749.3 1520.6 1763.2 1501.9 1771.4 1485.1L1785.8 1455.4L1784.8 1122.6L1783.4 789.8L1771.9 767.3C1765.7 755 1754.7 739.1 1748 732.9ZM1694.5 1333.8L1694.9 1334.4V1333.5L1694.5 1333.8Z" fill="white"/>
<path d="M1704.6 1340.8L1407.9 885.7L1296.7 1064L1583.6 1537.5L1709.4 1477L1704.6 1340.8Z" fill="#24A2EE"/>
<path d="M1560 1589.1L1263.2 1134L1135.5 1337.6L1373.7 1718.9L1526 1657L1560 1589.1Z" fill="#24A2EE"/>
<path fill-rule="evenodd" clip-rule="evenodd" d="M579.3 814.6L1134 495.1L1688.7 814.6V1453.3L1134 1772.9L726.8 1538.3L672.6 1626.9L1118.8 1883.9C1128.2 1889.3 1139.8 1889.3 1149.3 1883.9L1777.2 1522.1C1786.7 1516.6 1792.5 1506.6 1792.5 1495.6V772.3C1792.5 761.4 1786.7 751.3 1777.2 745.8L1149.3 384C1139.9 378.6 1128.2 378.6 1118.8 384L490.8 745.8C481.3 751.2 475.5 761.3 475.5 772.3V1495.7C475.5 1506.6 481.3 1516.7 490.8 1522.2L616.3 1594.5L672.2 1506.9L579.3 1453.4V814.6Z" fill="#98BCDC"/>
<path d="M1375.2 821.7L1160.9 824.7L672.4 1627.2L844.7 1727L1375.2 821.7Z" fill="white"/>
<path d="M843.2 894.9C892.1 814.9 1032.2 815.2 1096.2 825.4L616.2 1594.4C599.9 1585 559.5 1561.8 528.2 1543.8C486.8 1520.1 480 1519.5 475.6 1497.5V1454.9C577.7 1301.6 794.2 974.9 843.2 894.9Z" fill="white"/>
</g>
<defs>
<clipPath id="clip0_3579_1948">
<rect width="2268" height="2268" fill="white"/>
</clipPath>
</defs>
</svg>
